# xmcd
#
# Track frame offsets:
#	150
#	16917
#	35572
#	51674
#	67812
#	87679
#	105367
#	122104
#	140047
#	158532
#	176047
#	193464
#	211339
#	229916
#
# Disc length: 3300 seconds
#
# Revision: 0
# Processed by: cddbd v1.5.2PL0 Copyright (c) Steve Scherf et al.
# Submitted via: audiograbber 1.83.01
#
DISCID=cc0ce20e
DTITLE=Nivea - Nivea
DYEAR=2002
DGENRE=R&B
TTITLE0=Still In Love
TTITLE1=Ya Ya Ya (feat Lil Wayne)
TTITLE2=Don't Mess With My Man (feat Brian and Brandon Casey Of Jagged Edge)
TTITLE3=The One For Me
TTITLE4=Laundromat
TTITLE5=You Don't Even Know (feat Nick Cannon)
TTITLE6=Run Away (feat Pusha T)
TTITLE7=Just In Case
TTITLE8=No Doubt
TTITLE9=Never Had A Girl Like Me
TTITLE10=Have Mercy
TTITLE11=Don't Mess with the Radio
TTITLE12=25 Reasons
TTITLE13=Don't Mess With My Man (Remix) (feat Brian and Brandon Casey Of Jagged E
TTITLE13=dge, Mystikal)
EXTD=
EXTT0=
EXTT1=feat Lil Wayne
EXTT2=feat Brian and Brandon Casey of Jagged Edge
EXTT3=
EXTT4=
EXTT5=feat Nick Cannon
EXTT6=feat Pusha T of Clipse
EXTT7=
EXTT8=
EXTT9=
EXTT10=
EXTT11=
EXTT12=
EXTT13=feat Brian and Brandon Casey of Jagged Edge and Mystikal
PLAYORDER=
